<mxfile host="app.diagrams.net" modified="2024-06-13T02:28:50.759Z" agent="Mozilla/5.0 (Windows NT 10.0; Win64; x64) AppleWebKit/537.36 (KHTML, like Gecko) Chrome/125.0.0.0 Safari/537.36" version="24.5.2" etag="ZG48NNwGHBr2kRr4-Yxt" type="github">
  <diagram name="Page-1" id="H_SnFgYNVW-porC_uglF">
    <mxGraphModel>
      <root>
        <mxCell id="0" />
        <mxCell id="1" parent="0" />
      </root>
    </mxGraphModel>
  </diagram>
</mxfile>
